<svg width="132" height="28" viewBox="0 0 132 28" fill="none" xmlns="http://www.w3.org/2000/svg">
<path d="M0.703125 27.2521V17.8878H2.20526C2.70952 17.5469 3.17116 17.071 3.5902 16.4602C4.00923 15.8423 4.3679 14.9759 4.66619 13.8608C4.96449 12.7386 5.17756 11.2578 5.3054 9.41832L5.98722 0.181818H20.9126V17.8878H23.2564V27.2415H18.1854V22H5.77415V27.2521H0.703125ZM8.25639 17.8878H15.8416V4.46449H10.7173L10.3764 9.41832C10.2841 10.8033 10.1349 12.0249 9.92898 13.0831C9.72301 14.1413 9.47798 15.0646 9.19389 15.853C8.9098 16.6342 8.5973 17.3125 8.25639 17.8878ZM27.1747 22V0.181818H32.4482V8.93892H41.0455V0.181818H46.3082V22H41.0455V13.2322H32.4482V22H27.1747ZM64.4435 22L57.5827 12.9446H56.3896V22H51.1161V0.181818H56.3896V8.65128H57.2312L63.9854 0.181818H70.5799L62.1744 10.4837L71.0167 22H64.4435ZM84.2408 9.08807V13.0938H74.1413V9.08807H84.2408ZM102.746 22L95.8855 12.9446H94.6923V22H89.4189V0.181818H94.6923V8.65128H95.5339L102.288 0.181818H108.883L100.477 10.4837L109.319 22H102.746ZM111.797 22V17.8665L112.393 17.8026C113.161 17.7102 113.786 17.4013 114.268 16.8757C114.751 16.343 115.117 15.4979 115.366 14.3402C115.621 13.1754 115.785 11.6023 115.856 9.62074L116.207 0.181818H131.516V22H126.413V4.33665H121.076L120.735 11.5597C120.614 14.0526 120.298 16.0661 119.787 17.6001C119.276 19.1271 118.484 20.2422 117.411 20.9453C116.346 21.6484 114.915 22 113.118 22H111.797Z" fill="#3C79FF"/>
</svg>
