<svg width="430" height="382" viewBox="0 0 430 382" fill="none" xmlns="http://www.w3.org/2000/svg">
<path d="M430 335.779H0V336.031H430V335.779Z" fill="#EBEBEB"/>
<path d="M381.746 350.251H330.24V350.503H381.746V350.251Z" fill="#EBEBEB"/>
<path d="M291.454 344.818H246.244V345.07H291.454V344.818Z" fill="#EBEBEB"/>
<path d="M325.587 350.131H311.526V350.383H325.587V350.131Z" fill="#EBEBEB"/>
<path d="M90.1108 344.697H48.2546V344.949H90.1108V344.697Z" fill="#EBEBEB"/>
<path d="M102.899 344.697H93.9293V344.949H102.899V344.697Z" fill="#EBEBEB"/>
<path d="M174.004 346.856H145.065V347.108H174.004V346.856Z" fill="#EBEBEB"/>
<path d="M203.82 290.987H37.7625C36.4617 290.985 35.2148 290.379 34.2958 289.304C33.3767 288.229 32.8605 286.772 32.8605 285.253V12.6565C32.8719 11.1461 33.393 9.70183 34.3109 8.63751C35.2287 7.5732 36.4691 6.97476 37.7625 6.97217H203.82C205.122 6.97217 206.371 7.57634 207.292 8.65178C208.213 9.72721 208.731 11.1858 208.731 12.7067V285.253C208.731 286.774 208.213 288.232 207.292 289.308C206.371 290.383 205.122 290.987 203.82 290.987ZM37.7625 7.17303C36.5187 7.17569 35.3265 7.75458 34.4478 8.78264C33.5691 9.8107 33.0755 11.2039 33.0755 12.6565V285.253C33.0755 286.706 33.5691 288.099 34.4478 289.127C35.3265 290.155 36.5187 290.734 37.7625 290.736H203.82C205.065 290.734 206.258 290.155 207.138 289.127C208.018 288.1 208.513 286.706 208.516 285.253V12.6565C208.513 11.203 208.018 9.8098 207.138 8.78203C206.258 7.75425 205.065 7.17568 203.82 7.17303H37.7625Z" fill="#EBEBEB"/>
<path d="M389.847 290.987H223.781C222.479 290.985 221.231 290.38 220.311 289.305C219.39 288.23 218.872 286.773 218.87 285.253V12.6565C218.884 11.1451 219.407 9.70092 220.326 8.63688C221.245 7.57285 222.486 6.97473 223.781 6.97217H389.847C391.139 6.97739 392.377 7.57701 393.293 8.64104C394.209 9.70507 394.729 11.1478 394.74 12.6565V285.253C394.74 286.77 394.225 288.226 393.308 289.301C392.391 290.376 391.146 290.982 389.847 290.987ZM223.781 7.17303C222.536 7.17568 221.343 7.75425 220.463 8.78203C219.583 9.8098 219.087 11.203 219.085 12.6565V285.253C219.087 286.706 219.583 288.1 220.463 289.127C221.343 290.155 222.536 290.734 223.781 290.736H389.847C391.091 290.734 392.284 290.155 393.164 289.127C394.045 288.1 394.54 286.706 394.542 285.253V12.6565C394.54 11.203 394.045 9.8098 393.164 8.78203C392.284 7.75425 391.091 7.17568 389.847 7.17303H223.781Z" fill="#EBEBEB"/>
<path d="M389.675 235.249H40.3256V242.299H389.675V235.249Z" fill="#EBEBEB"/>
<path d="M96.9049 199.426L333.087 199.426V33.0337L96.9049 33.0337L96.9049 199.426Z" fill="#F0F0F0"/>
<path d="M326.705 191.974V40.4854L103.286 40.4854V191.974L326.705 191.974Z" fill="#FAFAFA"/>
<path d="M290.525 191.974L249.813 40.4854H209.496L250.208 191.974H290.525Z" fill="#3C79FF"/>
<path d="M237.713 191.974L197 40.4854H181.28L221.992 191.974H237.713Z" fill="#3C79FF"/>
<path d="M104.103 191.974L104.103 40.4854H103.295L103.295 191.974H104.103Z" fill="#E6E6E6"/>
<path d="M386.708 242.299H43.2838V335.779H386.708V242.299Z" fill="#F5F5F5"/>
<path d="M245.805 242.299H222.68L184.195 335.779H207.32L245.805 242.299Z" fill="#FAFAFA"/>
<path d="M351.809 242.299H328.683L290.198 335.779H313.324L351.809 242.299Z" fill="#FAFAFA"/>
<path d="M213.994 242.299H190.868L152.392 335.779H175.517L213.994 242.299Z" fill="#FAFAFA"/>
<path d="M75.1813 228.922L67.9401 219.13V201.454C68.0808 201.449 68.2142 201.38 68.3121 201.262C68.41 201.144 68.4648 200.986 68.4647 200.821C68.4647 200.651 68.4067 200.488 68.3035 200.367C68.2003 200.246 68.0603 200.179 67.9143 200.179H60.2001C60.0541 200.179 59.9141 200.246 59.8109 200.367C59.7077 200.488 59.6497 200.651 59.6497 200.821C59.6496 200.986 59.7043 201.144 59.8022 201.262C59.9002 201.38 60.0336 201.449 60.1743 201.454V219.13L52.9589 228.922C52.5495 229.474 52.2849 230.153 52.1967 230.876C52.1085 231.599 52.2005 232.337 52.4617 233.001C52.7229 233.665 53.1422 234.227 53.6695 234.621C54.1969 235.014 54.81 235.221 55.4357 235.219H72.7045C73.3302 235.221 73.9433 235.014 74.4706 234.621C74.998 234.227 75.4173 233.665 75.6785 233.001C75.9396 232.337 76.0316 231.599 75.9435 230.876C75.8553 230.153 75.5907 229.474 75.1813 228.922Z" fill="#F5F5F5"/>
<path d="M259.599 228.922L252.358 219.1V181.941C252.504 181.941 252.644 181.873 252.747 181.753C252.851 181.632 252.909 181.468 252.909 181.298C252.909 181.128 252.851 180.964 252.747 180.844C252.644 180.723 252.504 180.655 252.358 180.655H244.678C244.533 180.655 244.393 180.723 244.289 180.844C244.186 180.964 244.128 181.128 244.128 181.298C244.128 181.468 244.186 181.632 244.289 181.753C244.393 181.873 244.533 181.941 244.678 181.941V219.1L237.36 228.922C236.95 229.474 236.686 230.153 236.598 230.876C236.51 231.6 236.602 232.337 236.863 233.001C237.124 233.665 237.543 234.227 238.071 234.621C238.598 235.014 239.211 235.221 239.837 235.219H257.14C257.764 235.218 258.375 235.007 258.9 234.612C259.424 234.218 259.841 233.655 260.1 232.992C260.359 232.329 260.45 231.593 260.361 230.871C260.272 230.15 260.008 229.473 259.599 228.922Z" fill="#F5F5F5"/>
<path d="M183.188 235.199H123.264L127.994 165.209H183.188V235.199Z" fill="#E0E0E0"/>
<path d="M209.565 216.429H149.64L144.205 165.209H204.13L209.565 216.429Z" fill="#F0F0F0"/>
<path d="M209.565 216.429H149.64L168.354 235.249H228.278L209.565 216.429Z" fill="#F0F0F0"/>
<path d="M152.289 208.997L148.436 172.681C148.376 172.251 148.399 171.81 148.502 171.391C148.605 170.972 148.787 170.585 149.033 170.257C149.28 169.93 149.586 169.67 149.928 169.497C150.271 169.324 150.643 169.242 151.016 169.257H198.204C199.01 169.286 199.781 169.645 200.383 170.271C200.985 170.897 201.379 171.75 201.498 172.681L205.351 209.027C205.409 209.456 205.386 209.896 205.282 210.314C205.178 210.732 204.996 211.118 204.75 211.444C204.503 211.77 204.198 212.029 203.856 212.201C203.514 212.374 203.143 212.456 202.771 212.441H155.583C154.774 212.411 154.001 212.049 153.399 211.419C152.797 210.789 152.404 209.931 152.289 208.997Z" fill="#E0E0E0"/>
<path d="M310.323 235.199H359.833L355.928 177.392H310.323V235.199Z" fill="#E0E0E0"/>
<path d="M288.539 219.703H338.04L342.538 177.392H293.028L288.539 219.703Z" fill="#F0F0F0"/>
<path d="M288.538 219.703H338.04L322.586 235.249H273.076L288.538 219.703Z" fill="#F0F0F0"/>
<path d="M335.856 213.566L339.047 183.528C339.095 183.173 339.075 182.811 338.99 182.466C338.904 182.122 338.755 181.803 338.552 181.534C338.349 181.264 338.098 181.05 337.816 180.907C337.535 180.764 337.229 180.695 336.922 180.706H297.939C297.273 180.726 296.636 181.021 296.138 181.537C295.641 182.053 295.316 182.759 295.221 183.528L292.03 213.566C291.982 213.92 292.001 214.281 292.086 214.625C292.171 214.969 292.32 215.287 292.522 215.556C292.724 215.825 292.974 216.04 293.255 216.183C293.535 216.327 293.84 216.397 294.146 216.388H333.138C333.804 216.368 334.441 216.073 334.939 215.557C335.436 215.041 335.761 214.335 335.856 213.566Z" fill="#E0E0E0"/>
<path d="M215 381.133C307.091 381.133 381.745 376.043 381.745 369.765C381.745 363.486 307.091 358.396 215 358.396C122.909 358.396 48.2546 363.486 48.2546 369.765C48.2546 376.043 122.909 381.133 215 381.133Z" fill="#F5F5F5"/>
<path opacity="0.2" d="M74.8201 77.5946L120.968 283.476C122.386 289.736 125.869 295.086 130.655 298.356C135.441 301.627 141.141 302.552 146.51 300.93C151.87 299.274 156.452 295.206 159.252 289.617C162.053 284.028 162.845 277.372 161.456 271.103L115.309 65.2217L74.8201 77.5946Z" fill="#E9EEF9"/>
<path d="M145.202 295.105C141.158 296.335 136.86 295.642 133.252 293.177C129.644 290.713 127.021 286.679 125.956 281.959L91.16 126.594C91.16 126.594 98.2034 120.98 106.416 121.934C111.752 122.38 117.104 121.376 122.051 119.001L156.451 272.659C157.499 277.377 156.904 282.388 154.796 286.595C152.688 290.801 149.238 293.861 145.202 295.105Z" fill="#E9EEF9"/>
<path opacity="0.2" d="M123.427 214.982C123.427 215.834 123.211 216.667 122.805 217.376C122.4 218.084 121.824 218.637 121.15 218.963C120.475 219.289 119.734 219.374 119.018 219.208C118.302 219.042 117.645 218.631 117.129 218.029C116.613 217.426 116.262 216.659 116.119 215.823C115.977 214.987 116.05 214.121 116.329 213.334C116.608 212.546 117.081 211.873 117.688 211.4C118.295 210.927 119.008 210.674 119.738 210.674C120.716 210.676 121.653 211.131 122.344 211.939C123.035 212.746 123.425 213.84 123.427 214.982Z" fill="black"/>
<path d="M121.389 214.982C121.391 215.364 121.295 215.738 121.115 216.056C120.935 216.375 120.677 216.623 120.376 216.771C120.074 216.918 119.742 216.958 119.421 216.885C119.1 216.811 118.805 216.629 118.573 216.359C118.342 216.09 118.183 215.746 118.119 215.372C118.055 214.998 118.087 214.61 118.212 214.257C118.336 213.904 118.548 213.602 118.82 213.39C119.091 213.177 119.411 213.064 119.738 213.064C120.174 213.064 120.593 213.266 120.902 213.625C121.212 213.985 121.387 214.473 121.389 214.982Z" fill="#E9EEF9"/>
<path opacity="0.2" d="M124.39 168.996C124.392 169.503 124.265 170 124.024 170.422C123.784 170.845 123.442 171.175 123.041 171.37C122.64 171.565 122.198 171.617 121.772 171.518C121.345 171.42 120.954 171.175 120.647 170.817C120.339 170.458 120.13 170.001 120.046 169.503C119.962 169.005 120.006 168.489 120.173 168.021C120.34 167.553 120.622 167.153 120.984 166.872C121.346 166.592 121.772 166.443 122.206 166.445C122.785 166.447 123.339 166.717 123.748 167.195C124.157 167.673 124.388 168.32 124.39 168.996Z" fill="black"/>
<path d="M123.178 168.996C123.179 169.223 123.123 169.446 123.016 169.636C122.909 169.825 122.756 169.974 122.576 170.062C122.397 170.149 122.199 170.173 122.008 170.129C121.817 170.085 121.642 169.976 121.504 169.815C121.366 169.655 121.273 169.45 121.235 169.227C121.198 169.004 121.218 168.773 121.293 168.563C121.368 168.353 121.495 168.175 121.658 168.05C121.821 167.925 122.011 167.859 122.206 167.861C122.463 167.864 122.709 167.984 122.891 168.196C123.072 168.408 123.175 168.696 123.178 168.996Z" fill="#E9EEF9"/>
<path opacity="0.2" d="M133.085 268.261C135.697 268.261 137.815 265.788 137.815 262.737C137.815 259.686 135.697 257.213 133.085 257.213C130.473 257.213 128.355 259.686 128.355 262.737C128.355 265.788 130.473 268.261 133.085 268.261Z" fill="black"/>
<path d="M133.085 265.207C134.254 265.207 135.201 264.101 135.201 262.737C135.201 261.372 134.254 260.266 133.085 260.266C131.917 260.266 130.969 261.372 130.969 262.737C130.969 264.101 131.917 265.207 133.085 265.207Z" fill="#E9EEF9"/>
<path opacity="0.2" d="M137.729 241.355C139.216 241.355 140.421 239.948 140.421 238.212C140.421 236.476 139.216 235.068 137.729 235.068C136.242 235.068 135.037 236.476 135.037 238.212C135.037 239.948 136.242 241.355 137.729 241.355Z" fill="black"/>
<path d="M138.924 238.212C138.924 238.49 138.854 238.762 138.721 238.994C138.588 239.225 138.4 239.406 138.179 239.512C137.959 239.618 137.716 239.645 137.482 239.59C137.249 239.535 137.034 239.4 136.866 239.202C136.698 239.005 136.584 238.753 136.539 238.48C136.493 238.206 136.518 237.923 136.611 237.667C136.703 237.41 136.859 237.191 137.058 237.038C137.257 236.884 137.491 236.804 137.729 236.806C138.047 236.808 138.351 236.958 138.575 237.221C138.799 237.484 138.924 237.841 138.924 238.212Z" fill="#E9EEF9"/>
<path opacity="0.2" d="M145.761 281.829C147.505 281.829 148.918 280.178 148.918 278.143C148.918 276.107 147.505 274.457 145.761 274.457C144.018 274.457 142.605 276.107 142.605 278.143C142.605 280.178 144.018 281.829 145.761 281.829Z" fill="black"/>
<path d="M147.172 278.133C147.172 278.459 147.089 278.777 146.934 279.048C146.779 279.319 146.559 279.53 146.301 279.655C146.043 279.779 145.76 279.812 145.486 279.748C145.212 279.685 144.961 279.528 144.764 279.298C144.567 279.067 144.432 278.774 144.378 278.454C144.324 278.135 144.351 277.804 144.458 277.503C144.565 277.202 144.746 276.944 144.978 276.763C145.21 276.582 145.482 276.486 145.761 276.486C146.135 276.486 146.494 276.659 146.759 276.968C147.023 277.277 147.172 277.696 147.172 278.133Z" fill="#E9EEF9"/>
<path opacity="0.2" d="M125.474 190.628C125.474 191.48 125.258 192.313 124.852 193.022C124.447 193.73 123.871 194.283 123.196 194.609C122.522 194.935 121.78 195.02 121.065 194.854C120.349 194.688 119.692 194.277 119.176 193.675C118.66 193.072 118.308 192.305 118.166 191.469C118.024 190.633 118.097 189.767 118.376 188.979C118.655 188.192 119.128 187.519 119.735 187.046C120.341 186.573 121.055 186.32 121.784 186.32C122.763 186.32 123.701 186.774 124.393 187.582C125.085 188.39 125.474 189.486 125.474 190.628Z" fill="black"/>
<path d="M124.39 190.628C124.39 191.224 124.239 191.807 123.956 192.302C123.672 192.797 123.269 193.184 122.798 193.412C122.326 193.64 121.807 193.699 121.307 193.583C120.807 193.467 120.347 193.18 119.986 192.759C119.625 192.337 119.379 191.8 119.28 191.216C119.18 190.631 119.231 190.026 119.427 189.475C119.622 188.925 119.953 188.454 120.377 188.123C120.801 187.792 121.3 187.615 121.81 187.615C122.495 187.615 123.151 187.933 123.635 188.498C124.119 189.063 124.39 189.829 124.39 190.628Z" fill="#E9EEF9"/>
<path opacity="0.2" d="M133.85 207.942C133.85 208.538 133.699 209.12 133.416 209.616C133.132 210.111 132.729 210.498 132.258 210.726C131.786 210.954 131.268 211.013 130.767 210.897C130.267 210.781 129.807 210.494 129.446 210.073C129.085 209.651 128.84 209.114 128.74 208.53C128.64 207.945 128.692 207.34 128.887 206.789C129.082 206.239 129.413 205.768 129.837 205.437C130.261 205.106 130.76 204.929 131.27 204.929C131.955 204.929 132.611 205.247 133.095 205.812C133.579 206.377 133.85 207.143 133.85 207.942Z" fill="black"/>
<path d="M133.085 207.942C133.092 208.371 132.989 208.792 132.79 209.153C132.591 209.513 132.305 209.796 131.968 209.966C131.63 210.135 131.258 210.184 130.897 210.105C130.536 210.026 130.203 209.824 129.941 209.524C129.679 209.223 129.5 208.839 129.425 208.419C129.351 207.999 129.386 207.563 129.525 207.166C129.663 206.769 129.9 206.429 130.205 206.19C130.51 205.951 130.869 205.823 131.236 205.823C131.72 205.823 132.186 206.045 132.531 206.441C132.877 206.838 133.076 207.377 133.085 207.942Z" fill="#E9EEF9"/>
<path d="M107.477 89.7642L91.944 94.5127L105.883 156.692L121.416 151.944L107.477 89.7642Z" fill="#3C79FF"/>
<path d="M113.141 31.0865L112.309 31.3408L113.959 38.7052L114.791 38.4509L113.141 31.0865Z" fill="#E9EEF9"/>
<path d="M111.25 26.5962L107.758 11.0397C107.53 10.0195 107.019 9.11635 106.305 8.47131C105.591 7.82628 104.713 7.47571 103.811 7.47439C103.459 7.47277 103.109 7.52682 102.77 7.63508L94.9182 10.0354L94.7032 9.03105L102.555 6.63078C102.965 6.50258 103.387 6.43841 103.811 6.43997C104.904 6.4409 105.967 6.86527 106.832 7.64668C107.697 8.42809 108.316 9.52244 108.592 10.7584L112.032 26.315L111.25 26.5962Z" fill="#E9EEF9"/>
<path d="M62.1345 22.6459L103.317 10.0561C103.811 9.91328 104.333 10.0034 104.77 10.3068C105.207 10.6103 105.525 11.1027 105.654 11.6774L116.925 61.9556L71.9986 75.6899L60.7276 25.4118C60.6627 25.1223 60.6477 24.8205 60.6834 24.5242C60.7192 24.2278 60.805 23.9427 60.9359 23.6853C61.0667 23.428 61.2401 23.2036 61.4459 23.0252C61.6516 22.8467 61.8857 22.7178 62.1345 22.6459Z" fill="#E9EEF9"/>
<path opacity="0.2" d="M83.8406 16.0001L81.6193 16.6792L93.3803 69.1433L95.6016 68.4642L83.8406 16.0001Z" fill="black"/>
<path opacity="0.2" d="M92.2448 13.9947L90.0175 14.665L101.627 67.2701L103.855 66.5998L92.2448 13.9947Z" fill="black"/>
<path opacity="0.2" d="M100.471 10.9254L98.2499 11.6045L110.011 64.0686L112.232 63.3895L100.471 10.9254Z" fill="black"/>
<path opacity="0.2" d="M75.5124 18.5504L73.291 19.2295L85.052 71.6936L87.2734 71.0145L75.5124 18.5504Z" fill="black"/>
<path opacity="0.2" d="M67.2035 21.0973L64.9822 21.7764L76.7432 74.2405L78.9645 73.5614L67.2035 21.0973Z" fill="black"/>
<path d="M116.161 58.382L71.2263 72.1189C69.6962 72.5866 68.7805 74.4143 69.1811 76.2011L70.7427 83.1672C71.1432 84.954 72.7083 86.0233 74.2384 85.5555L119.173 71.8186C120.703 71.3509 121.619 69.5232 121.218 67.7364L119.656 60.7703C119.256 58.9835 117.691 57.9142 116.161 58.382Z" fill="#E9EEF9"/>
<path d="M379.175 135.884L378.705 142.671L379.562 142.752L380.032 135.965L379.175 135.884Z" fill="#E9EEF9"/>
<path d="M381.119 108.337L379.724 128.488L380.581 128.569L381.976 108.418L381.119 108.337Z" fill="#E9EEF9"/>
<path d="M240.929 25.5718L225.716 245.302L338.789 255.968L370.935 224.051L383.741 39.0495L240.929 25.5718Z" fill="#3C79FF"/>
<path d="M338.789 256.892H338.72L225.656 246.216C225.551 246.207 225.449 246.174 225.356 246.119C225.263 246.063 225.18 245.986 225.112 245.892C225.045 245.799 224.994 245.69 224.964 245.573C224.933 245.457 224.922 245.334 224.933 245.212L240.138 25.5017C240.147 25.3802 240.176 25.2619 240.224 25.1536C240.272 25.0453 240.338 24.9492 240.417 24.8708C240.497 24.7924 240.59 24.7332 240.69 24.6967C240.789 24.6602 240.894 24.6471 240.998 24.6581L383.801 38.1056C383.905 38.1144 384.007 38.1476 384.101 38.2032C384.194 38.2588 384.277 38.3357 384.344 38.4294C384.411 38.523 384.462 38.6315 384.493 38.7484C384.524 38.8653 384.534 38.9882 384.523 39.1099L371.718 224.102C371.711 224.222 371.683 224.339 371.635 224.446C371.588 224.553 371.523 224.648 371.443 224.724L339.296 256.651C339.158 256.801 338.977 256.886 338.789 256.892ZM226.567 244.459L338.522 255.034L370.179 223.599L382.889 39.8933L241.66 26.5662L226.567 244.459Z" fill="#E9EEF9"/>
<path opacity="0.2" d="M335.589 223.318L338.788 255.968L370.935 224.051L335.589 223.318Z" fill="#E9EEF9"/>
<path d="M341.188 221.239L338.788 255.968L370.935 224.051L341.188 221.239Z" fill="#3C79FF"/>
<path d="M338.788 256.892C338.663 256.893 338.539 256.859 338.427 256.791C338.288 256.709 338.173 256.58 338.096 256.421C338.02 256.262 337.985 256.08 337.997 255.898L340.405 221.169C340.412 221.047 340.44 220.929 340.487 220.82C340.535 220.711 340.6 220.615 340.68 220.536C340.759 220.457 340.851 220.398 340.95 220.362C341.049 220.325 341.153 220.313 341.257 220.325L370.995 223.127C371.151 223.142 371.299 223.21 371.421 223.322C371.544 223.435 371.635 223.587 371.683 223.76C371.733 223.936 371.737 224.126 371.694 224.305C371.651 224.484 371.564 224.644 371.443 224.764L339.296 256.691C339.154 256.829 338.973 256.9 338.788 256.892ZM341.91 222.234L339.7 253.829L368.94 224.785L341.91 222.234Z" fill="#E9EEF9"/>
<path d="M310.408 63.6952H310.159C309.431 63.626 308.756 63.2224 308.282 62.5729C307.808 61.9235 307.574 61.081 307.631 60.2303L308.215 51.8043C308.244 51.3822 308.344 50.971 308.509 50.5939C308.674 50.2169 308.901 49.8815 309.177 49.6068C309.452 49.3322 309.772 49.1237 310.117 48.9932C310.462 48.8628 310.825 48.813 311.187 48.8466C311.548 48.8802 311.9 48.9967 312.223 49.1893C312.546 49.3818 312.833 49.6468 313.068 49.969C313.304 50.2912 313.482 50.6643 313.594 51.0671C313.706 51.4699 313.748 51.8944 313.719 52.3165L313.135 60.7425C313.077 61.5428 312.765 62.2891 312.261 62.8352C311.757 63.3813 311.096 63.688 310.408 63.6952Z" fill="#E9EEF9"/>
<path d="M314.597 55.6105H314.356L307.14 54.9276C306.765 54.9167 306.396 54.8167 306.055 54.6335C305.714 54.4504 305.409 54.188 305.157 53.8623C304.906 53.5367 304.715 53.1547 304.594 52.7396C304.474 52.3245 304.427 51.8851 304.457 51.4483C304.487 51.0114 304.592 50.5862 304.768 50.1987C304.943 49.8112 305.184 49.4696 305.476 49.1946C305.769 48.9196 306.106 48.717 306.467 48.5994C306.829 48.4817 307.207 48.4513 307.579 48.5101L314.76 49.1529C315.455 49.2394 316.095 49.6302 316.553 50.2466C317.011 50.8629 317.251 51.659 317.226 52.4742C317.201 53.2895 316.912 54.0634 316.418 54.6398C315.923 55.2162 315.26 55.5523 314.562 55.5804L314.597 55.6105Z" fill="#E9EEF9"/>
<path d="M304.148 154.082H303.907C303.546 154.049 303.194 153.933 302.871 153.741C302.549 153.549 302.262 153.284 302.027 152.962C301.792 152.64 301.614 152.268 301.502 151.865C301.391 151.463 301.349 151.039 301.378 150.617L301.963 142.191C301.973 141.753 302.058 141.322 302.215 140.923C302.372 140.525 302.597 140.169 302.875 139.875C303.154 139.582 303.481 139.358 303.837 139.217C304.192 139.077 304.569 139.022 304.943 139.057C305.317 139.092 305.681 139.216 306.013 139.42C306.344 139.625 306.637 139.907 306.873 140.248C307.108 140.589 307.281 140.983 307.382 141.405C307.483 141.827 307.509 142.269 307.459 142.703L306.874 151.129C306.818 151.93 306.507 152.678 306.002 153.225C305.498 153.771 304.836 154.077 304.148 154.082Z" fill="#E9EEF9"/>
<path d="M307.76 154.423H307.51L300.295 153.74C299.92 153.728 299.552 153.626 299.212 153.442C298.872 153.258 298.568 152.995 298.318 152.669C298.067 152.343 297.877 151.961 297.757 151.546C297.638 151.131 297.592 150.692 297.622 150.256C297.653 149.82 297.759 149.396 297.934 149.009C298.11 148.622 298.351 148.281 298.642 148.007C298.934 147.732 299.271 147.53 299.632 147.413C299.993 147.295 300.371 147.264 300.742 147.323L307.957 148.006C308.652 148.092 309.293 148.483 309.75 149.099C310.208 149.716 310.449 150.512 310.423 151.327C310.398 152.142 310.11 152.916 309.615 153.493C309.121 154.069 308.458 154.405 307.76 154.433V154.423Z" fill="#E9EEF9"/>
<path d="M349.874 108.678H349.633L342.418 107.995C341.688 107.925 341.011 107.52 340.537 106.869C340.063 106.217 339.83 105.372 339.889 104.52C339.949 103.668 340.295 102.878 340.853 102.324C341.411 101.77 342.135 101.498 342.865 101.567L350.08 102.25C350.79 102.316 351.451 102.699 351.925 103.321C352.399 103.942 352.648 104.753 352.621 105.585C352.595 106.416 352.294 107.203 351.782 107.781C351.27 108.36 350.586 108.684 349.874 108.688V108.678Z" fill="#E9EEF9"/>
<path d="M349.59 112.886H349.341C348.979 112.851 348.627 112.734 348.304 112.541C347.982 112.348 347.695 112.083 347.46 111.76C347.225 111.437 347.047 111.064 346.936 110.661C346.825 110.257 346.783 109.833 346.812 109.411L347.397 100.985C347.491 100.166 347.851 99.4216 348.402 98.9037C348.952 98.3859 349.652 98.1346 350.357 98.2015C351.062 98.2685 351.717 98.6487 352.189 99.2637C352.661 99.8787 352.913 100.682 352.892 101.507L352.316 109.933C352.258 110.733 351.947 111.48 351.443 112.026C350.938 112.572 350.278 112.878 349.59 112.886Z" fill="#E9EEF9"/>
<path d="M272.474 101.376H272.233L265.018 100.693C264.643 100.681 264.274 100.579 263.935 100.395C263.595 100.211 263.29 99.9479 263.04 99.6219C262.79 99.296 262.6 98.9139 262.48 98.4992C262.361 98.0844 262.315 97.6456 262.345 97.2094C262.375 96.7732 262.482 96.3488 262.657 95.9621C262.832 95.5753 263.073 95.2344 263.365 94.9599C263.657 94.6854 263.994 94.4832 264.355 94.3656C264.716 94.2481 265.093 94.2175 265.465 94.2759L272.68 94.9588C273.375 95.046 274.016 95.4377 274.473 96.0551C274.931 96.6724 275.17 97.4693 275.144 98.285C275.118 99.1007 274.828 99.8744 274.332 100.45C273.837 101.026 273.172 101.36 272.474 101.386V101.376Z" fill="#E9EEF9"/>
<path d="M264.975 104.901H264.725C264.364 104.867 264.012 104.75 263.689 104.557C263.366 104.364 263.079 104.098 262.845 103.775C262.61 103.453 262.432 103.079 262.321 102.676C262.209 102.273 262.167 101.848 262.197 101.426L262.782 93.0003C262.792 92.5628 262.879 92.1325 263.037 91.7355C263.195 91.3385 263.42 90.9832 263.699 90.6912C263.978 90.3992 264.305 90.1766 264.661 90.0371C265.016 89.8975 265.392 89.8438 265.765 89.8793C266.139 89.9148 266.502 90.0387 266.833 90.2435C267.164 90.4483 267.456 90.7297 267.691 91.0706C267.926 91.4115 268.099 91.8046 268.2 92.2262C268.301 92.6477 268.327 93.0888 268.277 93.5225L267.701 101.949C267.643 102.749 267.331 103.495 266.827 104.041C266.323 104.587 265.662 104.894 264.975 104.901Z" fill="#E9EEF9"/>
<path d="M284.763 73.3564C284.359 73.3636 283.959 73.2654 283.591 73.0691C283.224 72.8728 282.898 72.5832 282.639 72.2215L277.943 65.784C277.469 65.1327 277.235 64.2881 277.294 63.4358C277.353 62.5836 277.7 61.7936 278.257 61.2395C278.815 60.6855 279.538 60.4129 280.268 60.4816C280.998 60.5504 281.674 60.9549 282.149 61.6061L286.844 68.0537C287.317 68.7053 287.549 69.5492 287.489 70.4003C287.43 71.2513 287.083 72.04 286.526 72.5931C286.035 73.0844 285.41 73.355 284.763 73.3564Z" fill="#E9EEF9"/>
<path d="M277.316 69.6606C276.75 69.6656 276.196 69.4672 275.729 69.0923C275.263 68.7174 274.907 68.1841 274.709 67.5647C274.511 66.9453 274.48 66.2698 274.622 65.6297C274.764 64.9896 275.071 64.4159 275.501 63.9863L281.022 58.5028C281.296 58.2065 281.617 57.978 281.968 57.831C282.319 57.6839 282.692 57.6214 283.064 57.6473C283.437 57.6731 283.801 57.7868 284.134 57.9814C284.468 58.1759 284.764 58.4474 285.005 58.7794C285.247 59.1114 285.428 59.497 285.538 59.9131C285.648 60.3291 285.685 60.7668 285.646 61.1999C285.608 61.633 285.494 62.0525 285.313 62.433C285.132 62.8135 284.886 63.1471 284.591 63.4138L279.079 68.8873C278.586 69.3769 277.963 69.6504 277.316 69.6606Z" fill="#E9EEF9"/>
<path d="M335.065 142.442C334.661 142.443 334.262 142.343 333.896 142.147C333.529 141.951 333.203 141.664 332.94 141.307L328.253 134.869C328.019 134.547 327.84 134.174 327.729 133.771C327.618 133.368 327.575 132.943 327.604 132.521C327.634 132.099 327.734 131.688 327.899 131.311C328.064 130.934 328.291 130.599 328.567 130.325C328.843 130.051 329.163 129.843 329.508 129.712C329.853 129.582 330.217 129.533 330.578 129.567C330.939 129.601 331.292 129.718 331.614 129.911C331.937 130.104 332.224 130.369 332.459 130.692L337.12 137.129C337.457 137.598 337.673 138.168 337.743 138.774C337.814 139.38 337.735 139.997 337.517 140.554C337.299 141.11 336.951 141.583 336.512 141.917C336.073 142.251 335.563 142.433 335.039 142.442H335.065Z" fill="#E9EEF9"/>
<path d="M332.313 145.174C331.909 145.181 331.508 145.083 331.141 144.887C330.773 144.69 330.448 144.401 330.188 144.039C329.953 143.718 329.774 143.345 329.662 142.943C329.55 142.54 329.507 142.116 329.536 141.694C329.565 141.272 329.664 140.861 329.83 140.485C329.995 140.108 330.222 139.773 330.498 139.5L336.011 134.026C336.568 133.472 337.292 133.2 338.021 133.268C338.751 133.337 339.428 133.741 339.902 134.393C340.376 135.044 340.61 135.889 340.551 136.741C340.492 137.593 340.146 138.383 339.588 138.937L334.076 144.411C333.584 144.902 332.959 145.173 332.313 145.174Z" fill="#E9EEF9"/>
<path d="M334.385 78.0462C333.82 78.0491 333.267 77.8492 332.802 77.4736C332.337 77.0979 331.982 76.5645 331.785 75.9456C331.588 75.3267 331.559 74.652 331.701 74.0129C331.843 73.3738 332.149 72.801 332.579 72.3719L338.092 66.8885C338.649 66.3344 339.373 66.0618 340.103 66.1306C340.832 66.1993 341.509 66.6038 341.983 67.255C342.458 67.9063 342.691 68.7509 342.632 69.6032C342.573 70.4554 342.227 71.2455 341.669 71.7995L336.157 77.2729C335.662 77.7647 335.035 78.0384 334.385 78.0462Z" fill="#E9EEF9"/>
<path d="M342.28 75.787C341.878 75.7912 341.479 75.6917 341.114 75.4956C340.748 75.2994 340.424 75.0114 340.165 74.6521L335.4 68.2347C335.165 67.9122 334.987 67.5389 334.876 67.136C334.764 66.7331 334.722 66.3085 334.751 65.8865C334.78 65.4645 334.88 65.0534 335.046 64.6765C335.211 64.2997 335.438 63.9645 335.714 63.6902C335.99 63.4159 336.31 63.2078 336.655 63.0777C337 62.9477 337.363 62.8983 337.725 62.9323C338.086 62.9664 338.438 63.0832 338.761 63.2761C339.084 63.469 339.371 63.7343 339.606 64.0568L344.293 70.4943C344.637 70.9602 344.859 71.5316 344.933 72.1406C345.007 72.7497 344.93 73.3708 344.711 73.9302C344.492 74.4897 344.14 74.9639 343.697 75.2966C343.254 75.6293 342.738 75.8064 342.211 75.8071L342.28 75.787Z" fill="#E9EEF9"/>
<path d="M275.2 136.788C274.796 136.795 274.396 136.697 274.028 136.5C273.661 136.304 273.335 136.015 273.076 135.653C272.841 135.331 272.663 134.958 272.551 134.555C272.44 134.152 272.398 133.728 272.428 133.306C272.457 132.884 272.558 132.473 272.724 132.097C272.889 131.721 273.117 131.387 273.394 131.113L278.907 125.64C279.18 125.344 279.502 125.115 279.853 124.968C280.204 124.821 280.577 124.759 280.949 124.784C281.321 124.81 281.685 124.924 282.019 125.119C282.352 125.313 282.648 125.585 282.89 125.917C283.131 126.249 283.312 126.634 283.422 127.05C283.533 127.466 283.569 127.904 283.531 128.337C283.492 128.77 283.379 129.19 283.197 129.57C283.016 129.951 282.77 130.284 282.476 130.551L276.963 136.024C276.473 136.519 275.847 136.79 275.2 136.788Z" fill="#E9EEF9"/>
<path d="M277.582 140.012C277.179 140.016 276.779 139.917 276.412 139.72C276.045 139.524 275.719 139.236 275.458 138.877L270.762 132.439C270.288 131.788 270.055 130.943 270.113 130.091C270.172 129.239 270.519 128.449 271.076 127.895C271.634 127.341 272.357 127.068 273.087 127.137C273.817 127.206 274.493 127.61 274.968 128.261L279.655 134.699C279.891 135.021 280.07 135.395 280.182 135.798C280.294 136.201 280.337 136.626 280.308 137.049C280.279 137.471 280.179 137.883 280.014 138.26C279.849 138.638 279.622 138.974 279.345 139.248C278.85 139.732 278.227 140.001 277.582 140.012Z" fill="#E9EEF9"/>
<path d="M330.352 132.772C345.164 118.061 346.96 92.1124 334.362 74.8145C321.765 57.5166 299.544 55.4197 284.732 70.131C269.919 84.8422 268.124 110.791 280.721 128.089C293.319 145.387 315.539 147.484 330.352 132.772Z" fill="#3C79FF"/>
<path d="M307.88 144.411C306.788 144.411 305.696 144.411 304.595 144.27C297.343 143.587 290.428 140.408 284.723 135.134C279.019 129.861 274.782 122.731 272.548 114.646C270.314 106.56 270.183 97.8825 272.172 89.7103C274.162 81.5381 278.182 74.2384 283.724 68.7343C289.266 63.2302 296.081 59.769 303.308 58.7885C310.534 57.808 317.848 59.3521 324.323 63.2257C330.798 67.0993 336.144 73.1282 339.685 80.5501C343.226 87.972 344.802 96.4534 344.215 104.922C343.475 115.613 339.335 125.594 332.611 132.902C325.887 140.21 317.065 144.315 307.88 144.411ZM307.287 62.2088C298.52 62.3061 290.135 66.4078 283.926 73.6357C277.717 80.8635 274.179 90.643 274.068 100.88C273.957 111.117 277.283 120.998 283.334 128.406C289.384 135.815 297.678 140.163 306.44 140.519C315.201 140.875 323.734 137.21 330.21 130.31C336.687 123.41 340.593 113.823 341.091 103.602C341.59 93.3811 338.642 83.3382 332.878 75.624C327.114 67.9099 318.993 63.1377 310.254 62.3294C309.245 62.249 308.256 62.2088 307.287 62.2088Z" fill="#E9EEF9"/>
<path opacity="0.2" d="M320.212 107.041C319.868 107.041 319.524 107.041 319.189 107.041C316.151 106.756 313.334 105.073 311.358 102.363C309.383 99.6526 308.41 96.1368 308.654 92.5889C308.898 89.0411 310.339 85.7517 312.66 83.4445C314.981 81.1373 317.991 80.0013 321.029 80.2863C323.982 80.5539 326.731 82.1452 328.701 84.7269C330.671 87.3086 331.709 90.6804 331.598 94.136C331.487 97.5916 330.235 100.863 328.105 103.265C325.974 105.667 323.131 107.013 320.169 107.021L320.212 107.041ZM320.049 85.2375C318.649 85.2498 317.282 85.7382 316.115 86.6431C314.949 87.5479 314.034 88.8301 313.481 90.3327C312.929 91.8353 312.763 93.4934 313.004 95.1042C313.246 96.715 313.884 98.2088 314.84 99.4029C315.797 100.597 317.031 101.44 318.391 101.828C319.752 102.217 321.179 102.134 322.5 101.59C323.821 101.046 324.977 100.065 325.828 98.7661C326.678 97.4672 327.187 95.907 327.29 94.2761C327.44 92.055 326.828 89.8553 325.59 88.1605C324.351 86.4656 322.587 85.4143 320.685 85.2375C320.479 85.2475 320.264 85.2375 320.049 85.2375Z" fill="#E9EEF9"/>
<path opacity="0.4" d="M294.249 98.2128C294.153 99.6919 293.683 101.104 292.899 102.271C292.115 103.438 291.052 104.307 289.845 104.768C288.637 105.229 287.34 105.26 286.117 104.859C284.894 104.458 283.801 103.642 282.976 102.515C282.15 101.388 281.63 99.9996 281.481 98.5266C281.331 97.0536 281.56 95.562 282.137 94.2408C282.715 92.9196 283.615 91.8283 284.724 91.1051C285.833 90.3819 287.101 90.0594 288.367 90.1785C290.058 90.3374 291.626 91.272 292.728 92.7776C293.831 94.2833 294.377 96.2375 294.249 98.2128Z" fill="#E9EEF9"/>
<path opacity="0.2" d="M311.569 122.276C311.497 123.319 311.161 124.313 310.604 125.134C310.048 125.954 309.295 126.563 308.442 126.884C307.589 127.205 306.674 127.224 305.812 126.938C304.95 126.651 304.18 126.073 303.599 125.275C303.019 124.478 302.654 123.498 302.55 122.458C302.447 121.419 302.609 120.366 303.018 119.435C303.426 118.503 304.062 117.734 304.845 117.224C305.628 116.715 306.522 116.487 307.416 116.571C308.614 116.686 309.723 117.352 310.502 118.421C311.281 119.49 311.665 120.876 311.569 122.276Z" fill="#E9EEF9"/>
<path opacity="0.2" d="M270.307 191.763H270.169L250.699 189.925C250.49 189.906 250.287 189.839 250.101 189.727C249.915 189.616 249.75 189.462 249.615 189.275C249.481 189.088 249.38 188.871 249.318 188.638C249.255 188.405 249.234 188.16 249.254 187.916L250.828 165.179C250.845 164.936 250.903 164.7 250.999 164.483C251.095 164.266 251.227 164.074 251.387 163.917C251.547 163.76 251.732 163.642 251.931 163.569C252.13 163.496 252.34 163.47 252.548 163.492L272.009 165.33C272.218 165.35 272.42 165.418 272.606 165.53C272.791 165.642 272.956 165.796 273.09 165.983C273.224 166.17 273.326 166.385 273.388 166.618C273.451 166.851 273.473 167.096 273.454 167.338L271.88 190.066C271.864 190.307 271.808 190.542 271.713 190.758C271.619 190.973 271.488 191.165 271.33 191.321C271.044 191.604 270.682 191.76 270.307 191.763ZM252.522 186.39L268.862 187.937L270.178 168.855L253.838 167.308L252.522 186.39Z" fill="#263238"/>
<path d="M344.645 182.725H344.507L280.919 176.699C280.503 176.659 280.117 176.427 279.847 176.055C279.577 175.683 279.444 175.201 279.478 174.715C279.513 174.229 279.711 173.779 280.029 173.463C280.348 173.148 280.761 172.993 281.177 173.033L344.757 179.059C344.963 179.067 345.167 179.123 345.355 179.224C345.543 179.324 345.712 179.467 345.853 179.643C345.994 179.82 346.104 180.027 346.176 180.254C346.249 180.48 346.282 180.721 346.275 180.962C346.267 181.203 346.219 181.441 346.133 181.66C346.048 181.88 345.925 182.078 345.774 182.242C345.623 182.407 345.445 182.535 345.251 182.62C345.058 182.704 344.852 182.743 344.645 182.735V182.725Z" fill="#E0E0E0"/>
<path d="M300.802 187.846H300.665L280.283 185.928C280.066 185.924 279.853 185.868 279.656 185.763C279.459 185.659 279.282 185.508 279.137 185.321C278.991 185.134 278.88 184.913 278.811 184.674C278.741 184.435 278.715 184.181 278.732 183.929C278.75 183.677 278.812 183.432 278.914 183.21C279.016 182.987 279.156 182.79 279.325 182.633C279.495 182.476 279.69 182.361 279.899 182.296C280.108 182.23 280.326 182.215 280.541 182.252L300.923 184.18C301.34 184.199 301.734 184.411 302.018 184.769C302.302 185.126 302.452 185.601 302.436 186.089C302.42 186.576 302.239 187.036 301.933 187.368C301.626 187.699 301.22 187.875 300.802 187.856V187.846Z" fill="#E0E0E0"/>
<path d="M330.808 190.678H330.67L313.04 189.011C312.624 188.971 312.238 188.74 311.968 188.368C311.698 187.996 311.565 187.514 311.6 187.028C311.634 186.542 311.832 186.091 312.15 185.776C312.469 185.46 312.882 185.306 313.298 185.346L330.885 187.003C331.302 187.02 331.697 187.23 331.981 187.587C332.266 187.944 332.418 188.418 332.403 188.906C332.388 189.393 332.208 189.854 331.902 190.186C331.597 190.519 331.191 190.696 330.773 190.678H330.808Z" fill="#E0E0E0"/>
<path opacity="0.2" d="M267.512 232.176H267.374L247.904 230.338C247.695 230.319 247.492 230.252 247.306 230.141C247.12 230.029 246.955 229.875 246.82 229.688C246.686 229.501 246.585 229.285 246.523 229.051C246.461 228.818 246.439 228.573 246.459 228.33L248.033 205.602C248.05 205.359 248.108 205.123 248.204 204.906C248.3 204.69 248.432 204.498 248.592 204.341C248.752 204.184 248.937 204.065 249.136 203.992C249.335 203.919 249.545 203.893 249.753 203.915L269.18 205.823C269.389 205.842 269.592 205.91 269.778 206.021C269.964 206.133 270.129 206.287 270.263 206.474C270.398 206.661 270.499 206.877 270.561 207.11C270.623 207.344 270.645 207.589 270.625 207.832L269.051 230.569C269.015 231.056 268.818 231.506 268.501 231.825C268.215 232.071 267.866 232.195 267.512 232.176ZM249.727 226.813L266.067 228.36L267.383 209.278L251.043 207.732L249.727 226.813Z" fill="#263238"/>
<path d="M330.438 222.063H330.3L278.124 217.132C277.708 217.092 277.322 216.86 277.052 216.489C276.782 216.117 276.649 215.634 276.684 215.148C276.718 214.662 276.916 214.212 277.234 213.896C277.553 213.581 277.966 213.426 278.382 213.466L330.558 218.387C330.976 218.406 331.37 218.617 331.653 218.975C331.937 219.333 332.088 219.808 332.072 220.295C332.056 220.783 331.875 221.243 331.568 221.574C331.262 221.906 330.855 222.082 330.438 222.063Z" fill="#E0E0E0"/>
<path d="M309.531 229.324H309.394L277.488 226.311C277.271 226.306 277.058 226.25 276.861 226.146C276.664 226.042 276.487 225.891 276.342 225.704C276.196 225.516 276.086 225.296 276.016 225.057C275.946 224.818 275.92 224.564 275.937 224.312C275.955 224.06 276.017 223.815 276.119 223.592C276.221 223.369 276.361 223.173 276.53 223.016C276.7 222.859 276.895 222.744 277.104 222.678C277.313 222.613 277.532 222.598 277.746 222.635L309.643 225.648C310.06 225.665 310.455 225.876 310.74 226.232C311.024 226.589 311.176 227.064 311.161 227.551C311.146 228.039 310.966 228.499 310.66 228.832C310.355 229.164 309.949 229.341 309.531 229.324Z" fill="#E0E0E0"/>
<path opacity="0.3" d="M154.332 175.804C161.014 152.815 147.549 126.694 124.256 117.46C100.963 108.226 76.663 119.377 69.9805 142.366C63.2981 165.355 76.7636 191.477 100.057 200.711C123.35 209.944 147.649 198.793 154.332 175.804Z" fill="#E9EEF9"/>
<path opacity="0.3" d="M137.251 127.599L127.905 116.302L74.5388 176.505L83.8839 187.802L137.251 127.599Z" fill="#3C79FF"/>
<path opacity="0.3" d="M149.435 139.195L142.139 130.375L87.5358 191.975L94.8314 200.794L149.435 139.195Z" fill="#3C79FF"/>
<path d="M116.659 207.511C110.681 207.487 104.746 206.323 99.0892 204.066C87.1524 199.326 77.2538 190.257 71.208 178.527C65.059 166.606 63.6142 153.419 67.1402 141.257C70.6662 129.095 78.7072 119.665 89.8012 114.573C100.715 109.551 113.296 109.411 125.233 114.151C137.17 118.891 147.077 127.95 153.123 139.68C159.263 151.601 160.708 164.838 157.191 176.96C153.673 189.082 145.615 198.552 134.53 203.634C128.834 206.223 122.771 207.538 116.659 207.511ZM107.663 117.736C102.314 117.711 97.0085 118.856 92.02 121.111C82.56 125.48 75.7832 133.393 72.842 143.557C69.9008 153.72 71.122 164.828 76.3594 174.941C81.6742 185.255 90.4376 193.25 101.024 197.447C111.611 201.645 122.739 201.535 132.328 197.136C141.737 192.818 148.548 184.864 151.489 174.74C154.43 164.617 153.209 153.469 147.963 143.346C142.648 133.032 133.893 125.048 123.298 120.85C118.267 118.821 112.986 117.77 107.663 117.736Z" fill="#263238"/>
<path d="M157.561 171.085C163.426 171.875 169.253 173.019 175.019 174.509C180.746 175.936 186.422 177.583 192.038 179.39C197.654 181.198 203.218 183.177 208.774 185.286C211.517 186.42 214.381 187.174 216.926 188.971C218.258 189.891 219.486 191.001 220.581 192.275C221.182 192.968 221.737 193.714 222.241 194.505C222.815 195.385 223.311 196.33 223.72 197.327C224.516 199.245 224.633 201.451 224.048 203.469C223.462 205.487 222.22 207.155 220.59 208.113C219.74 208.611 218.85 209.008 217.933 209.298C217.124 209.565 216.298 209.759 215.464 209.881C213.928 210.112 212.374 210.112 210.838 209.881C207.879 209.499 205.222 208.063 202.453 207.019C196.957 204.759 191.505 202.369 186.113 199.788C180.72 197.207 175.354 194.505 170.056 191.562C164.709 188.643 159.493 185.405 154.43 181.861C153.462 181.168 152.725 180.111 152.339 178.864C151.953 177.617 151.942 176.254 152.307 174.999C152.672 173.743 153.391 172.67 154.348 171.955C155.304 171.24 156.44 170.926 157.569 171.065L157.561 171.085Z" fill="#263238"/>
<path opacity="0.1" d="M209.84 99.9403C210.459 104.048 209.023 107.111 206.632 106.78C204.241 106.448 201.808 102.863 201.197 98.7452C200.586 94.6276 202.057 91.5745 204.405 91.906C206.753 92.2374 209.204 95.8328 209.84 99.9403Z" fill="#E9EEF9"/>
<path d="M222.74 365.507C229.852 364.864 233.464 359.541 232.905 353.556C232.596 350.251 241.651 349.177 241.651 349.177C240.318 359.611 242.271 361.289 242.606 363.97C242.941 366.652 242.752 369.564 240.886 369.614C238.633 369.685 237.618 369.182 234.814 369.313C231.538 369.454 229.328 369.604 223.514 369.614C221.201 369.634 219.601 365.808 222.74 365.507Z" fill="#263238"/>
<path d="M286.569 359.481C290.775 351.075 287.317 345.551 284.282 340.982C282.484 338.28 291.11 334.855 291.11 334.855C293.26 341.173 295.41 341.092 297.56 342.488C299.71 343.884 300.94 346.204 299.762 347.901C298.343 349.91 297.087 349.759 295.419 352.35C293.466 355.363 291.385 359.29 288.65 362.544C287.025 364.502 284.987 362.614 286.569 359.481Z" fill="#263238"/>
<path d="M203.94 189.483C203.94 189.483 205.136 231.664 213.959 266.814C217.804 297.204 232.811 354.63 232.811 354.63C235.924 355.498 239.171 355.463 242.271 354.53C242.271 354.53 247.078 310.2 236.982 262.134C243.543 210.865 239.08 184.693 239.08 184.693L203.94 189.483Z" fill="#E9EEF9"/>
<path d="M217.812 187.545C217.812 187.545 232.888 245.563 244.472 272.398C256.65 300.579 282.888 340.69 284.101 342.468C287.438 340.61 290.353 338.501 292.099 335.659C292.099 335.659 282.071 291.168 267.254 260.859C255.601 194.073 247.835 183.367 247.835 183.367L217.812 187.545Z" fill="#E9EEF9"/>
<path d="M226.61 103.616C225.974 109.572 225.75 119.163 228.201 123.913C228.201 123.913 221.699 125.209 213.246 135.221C208.086 128.282 212.248 126.183 212.248 126.183C216.023 124.576 216.075 118.982 215.628 114.674L226.61 103.616Z" fill="#FFC3BD"/>
<path d="M199.305 142.874C198.333 135.934 201.842 130.28 209.212 127.307C216.006 124.576 225.759 122.577 232.492 123.702C239.226 124.827 241.694 128.723 241.247 134.649C239.321 160.359 247.74 175.503 247.852 183.367C232.011 188.087 207.836 192.054 203.94 189.483C201.094 185.978 201.644 164.115 202.53 160.78C195.504 156.472 199.847 146.74 199.305 142.874Z" fill="#E9EEF9"/>
<path d="M205.996 99.7693C206.099 100.543 205.832 101.246 205.394 101.326C204.955 101.406 204.534 100.844 204.405 100.061C204.276 99.2772 204.568 98.5742 205.007 98.4939C205.445 98.4135 205.884 98.9859 205.996 99.7693Z" fill="#263238"/>
<path d="M205.205 98.5042L203.485 98.2632C203.485 98.2632 204.551 99.5788 205.205 98.5042Z" fill="#263238"/>
<path d="M205.97 101.376C205.61 103.27 205.032 105.098 204.25 106.81C204.629 107.032 205.044 107.155 205.468 107.169C205.891 107.182 206.312 107.087 206.701 106.89L205.97 101.376Z" fill="#ED847E"/>
<path d="M203.863 95.6215C203.796 95.574 203.743 95.5045 203.71 95.4216C203.677 95.3388 203.666 95.2464 203.678 95.1561C203.689 95.0658 203.724 94.9817 203.777 94.9143C203.83 94.847 203.899 94.7995 203.975 94.7779C204.583 94.5766 205.225 94.5491 205.844 94.6977C206.464 94.8463 207.044 95.1665 207.535 95.6315C207.609 95.7182 207.651 95.8355 207.651 95.9579C207.651 96.0803 207.609 96.1977 207.535 96.2843C207.499 96.3284 207.456 96.3634 207.408 96.3874C207.36 96.4113 207.308 96.4237 207.256 96.4237C207.203 96.4237 207.152 96.4113 207.104 96.3874C207.056 96.3634 207.012 96.3284 206.976 96.2843C206.582 95.9256 206.122 95.6804 205.632 95.5687C205.142 95.457 204.636 95.482 204.155 95.6416C204.059 95.6799 203.954 95.6727 203.863 95.6215Z" fill="#263238"/>
<path d="M227.762 94.4064C228.571 104.098 229.087 108.185 225.681 113.87C220.564 122.416 210.382 121.402 207.157 112.172C204.259 103.867 203.424 89.415 210.795 84.1324C218.165 78.8498 226.954 84.7149 227.762 94.4064Z" fill="#FFC3BD"/>
<path d="M210.7 100.483C207.681 100.995 206.4 95.6117 207.432 93.2416C203.871 93.111 203.252 89.355 204.405 86.5932C205.557 83.8313 208.438 77.7051 218.81 79.5631C229.181 81.421 232.57 91.9561 231.667 96.3851C230.764 100.814 232.621 113.267 222.929 115.316C213.237 117.365 207.337 106.147 210.7 100.483Z" fill="#263238"/>
<path d="M245.573 124.475C240.275 118.45 220.229 121.462 205.643 126.886C191.058 132.309 194.695 149.402 195.96 161.313C197.224 173.224 204.852 257.284 213.607 287.854C234.866 288.166 267.331 279.82 276.344 274.387C272.809 263.44 253.846 178.286 250.733 155.88C249.219 144.953 251.163 130.802 245.573 124.475Z" fill="#E9EEF9"/>
<path opacity="0.6" d="M245.573 124.475C240.275 118.45 220.229 121.462 205.643 126.886C191.058 132.309 194.695 149.402 195.96 161.313C197.224 173.224 204.852 257.284 213.607 287.854C234.866 288.166 267.331 279.82 276.344 274.387C272.809 263.44 253.846 178.286 250.733 155.88C249.219 144.953 251.163 130.802 245.573 124.475Z" fill="#3C79FF"/>
<path opacity="0.5" d="M197.232 173.957C200.156 169.538 202.676 165.26 203.467 162.619C206.288 153.168 202.478 178.969 199.124 192.386C198.376 185.376 197.74 179.089 197.232 173.957Z" fill="#E9EEF9"/>
<path d="M173.023 179.561L176.085 183.176C177.728 188.459 171.295 191.372 171.295 191.372L168.405 194.224C167.973 194.698 167.403 194.961 166.81 194.961C166.217 194.961 165.647 194.698 165.215 194.224L163.065 191.713C162.586 191.113 162.321 190.323 162.321 189.504C162.321 188.684 162.586 187.894 163.065 187.294L165.301 184.402C165.928 183.573 166.699 182.909 167.562 182.453L173.023 179.561Z" fill="#E9EEF9"/>
<path d="M174.262 179.179C170.822 177.422 167.674 180.525 164.802 182.122C164.311 182.393 164.148 184.04 165.008 184.221C165.562 184.376 166.137 184.401 166.7 184.294C167.262 184.187 167.801 183.95 168.285 183.598C169.007 184.683 172.008 186.521 175.001 183.347C175.234 181.898 174.968 180.401 174.262 179.179Z" fill="#E9EEF9"/>
<path d="M214.948 142.613L214.527 144.943L214.071 147.142C213.762 148.598 213.435 150.044 213.108 151.481C212.42 154.363 211.672 157.235 210.838 160.087C210.003 162.94 209.118 165.782 208.094 168.624C207.604 170.05 207.054 171.476 206.503 172.892L205.643 175.021L205.119 176.257C204.886 176.809 204.628 177.331 204.362 177.853C202.184 182.049 198.945 185.351 195.091 187.304L194.73 187.485L194.463 187.605L193.947 187.826L192.907 188.258L190.877 189.001L188.899 189.644L186.947 190.196C184.367 190.879 181.787 191.401 179.258 191.813C177.986 192.014 176.721 192.185 175.449 192.345C174.176 192.506 172.937 192.627 171.561 192.717L169.42 178.064L172.688 176.859C173.797 176.447 174.898 176.005 175.99 175.564C178.175 174.7 180.29 173.796 182.38 172.832L183.894 172.099L185.356 171.356L186.732 170.572L187.36 170.17L187.686 169.98L187.833 169.889L187.884 169.839C188.436 169.317 188.845 168.619 189.062 167.83C189.062 167.73 189.114 167.64 189.131 167.539V167.469L189.191 167.268L189.32 166.826L189.854 165.039C190.189 163.813 190.542 162.618 190.86 161.363C191.505 158.882 192.098 156.341 192.666 153.75C193.233 151.159 193.767 148.578 194.265 145.957C194.523 144.651 194.773 143.346 195.005 142.04L195.667 138.254L214.948 142.613Z" fill="#E9EEF9"/>
<g opacity="0.6">
<path d="M214.948 142.613L214.527 144.943L214.071 147.142C213.762 148.598 213.435 150.044 213.108 151.481C212.42 154.363 211.672 157.235 210.838 160.087C210.003 162.94 209.118 165.782 208.094 168.624C207.604 170.05 207.054 171.476 206.503 172.892L205.643 175.021L205.119 176.257C204.886 176.809 204.628 177.331 204.362 177.853C202.184 182.049 198.945 185.351 195.091 187.304L194.73 187.485L194.463 187.605L193.947 187.826L192.907 188.258L190.877 189.001L188.899 189.644L186.947 190.196C184.367 190.879 181.787 191.401 179.258 191.813C177.986 192.014 176.721 192.185 175.449 192.345C174.176 192.506 172.937 192.627 171.561 192.717L169.42 178.064L172.688 176.859C173.797 176.447 174.898 176.005 175.99 175.564C178.175 174.7 180.29 173.796 182.38 172.832L183.894 172.099L185.356 171.356L186.732 170.572L187.36 170.17L187.686 169.98L187.833 169.889L187.884 169.839C188.436 169.317 188.845 168.619 189.062 167.83C189.062 167.73 189.114 167.64 189.131 167.539V167.469L189.191 167.268L189.32 166.826L189.854 165.039C190.189 163.813 190.542 162.618 190.86 161.363C191.505 158.882 192.098 156.341 192.666 153.75C193.233 151.159 193.767 148.578 194.265 145.957C194.523 144.651 194.773 143.346 195.005 142.04L195.667 138.254L214.948 142.613Z" fill="#3C79FF"/>
</g>
<path opacity="0.5" d="M228.906 183.458C228.906 183.458 243.062 181.138 247.224 177.954C242.185 183.106 235.365 184.201 228.906 183.458Z" fill="#E9EEF9"/>
<path opacity="0.5" d="M230.48 185.316C230.48 185.316 240.877 185.406 244.154 183.598C240.069 186.742 235.055 186.681 230.48 185.316Z" fill="#E9EEF9"/>
<path d="M205.205 102.792C204.198 105.946 203.089 109.401 203.837 113.227C204.585 117.053 207.914 119.062 213.056 119.012C212.506 116.511 210.175 114.995 208.326 111.148C206.477 107.302 208.326 98.5844 208.326 98.5844L207.681 97.9316C206.919 100.123 206.312 102.383 205.867 104.691C205.007 103.184 205.205 102.792 205.205 102.792Z" fill="#E9EEF9"/>
<path opacity="0.3" d="M205.205 102.792C204.198 105.946 203.089 109.401 203.837 113.227C204.585 117.053 207.914 119.062 213.056 119.012C212.506 116.511 210.175 114.995 208.326 111.148C206.477 107.302 208.326 98.5844 208.326 98.5844L207.681 97.9316C206.919 100.123 206.312 102.383 205.867 104.691C205.007 103.184 205.205 102.792 205.205 102.792Z" fill="#3C79FF"/>
<path d="M212.988 103.054C212.883 103.979 212.604 104.866 212.172 105.651C211.739 106.436 211.163 107.099 210.485 107.593C208.765 108.668 207.38 106.227 207.389 103.435C207.389 100.915 208.249 97.3292 210.21 97.4095C212.171 97.4899 213.383 100.503 212.988 103.054Z" fill="#FFC3BD"/>
<path d="M203.966 87.9087C204.56 92.4481 208.92 105.353 215.559 110.485C221.579 115.165 227.848 115.728 229.878 110.656C229.878 110.656 237.308 113.599 239.08 96.9374C240.602 82.6964 231.761 72.5831 222.164 70.8256C213.435 69.2388 196.278 73.9088 203.966 87.9087Z" fill="#E9EEF9"/>
<path opacity="0.2" d="M204.732 88.3203C204.732 88.3203 211.465 102.993 229.138 109.973C218.818 108.908 210.511 99.6488 204.732 88.3203Z" fill="black"/>
</svg>
