<svg width="24" height="23" viewBox="0 0 24 23" fill="none" xmlns="http://www.w3.org/2000/svg">
<path d="M14 1.9165H6C5.46957 1.9165 4.96086 2.11844 4.58579 2.47788C4.21071 2.83733 4 3.32484 4 3.83317V19.1665C4 19.6748 4.21071 20.1623 4.58579 20.5218C4.96086 20.8812 5.46957 21.0832 6 21.0832H18C18.5304 21.0832 19.0391 20.8812 19.4142 20.5218C19.7893 20.1623 20 19.6748 20 19.1665V7.6665L14 1.9165Z" stroke="#989898" stroke-width="2" stroke-linecap="round" stroke-linejoin="round"/>
<path d="M16 16.2915H8" stroke="#989898" stroke-width="2" stroke-linecap="round" stroke-linejoin="round"/>
<path d="M16 12.4585H8" stroke="#989898" stroke-width="2" stroke-linecap="round" stroke-linejoin="round"/>
<path d="M10 8.625H9H8" stroke="#989898" stroke-width="2" stroke-linecap="round" stroke-linejoin="round"/>
<path d="M14 1.9165V7.6665H20" stroke="#989898" stroke-width="2" stroke-linecap="round" stroke-linejoin="round"/>
</svg>
