<svg width="21" height="21" viewBox="0 0 21 21" fill="none" xmlns="http://www.w3.org/2000/svg">
<path d="M10.5 0.5C8.56047 0.503685 6.66387 1.07131 5.04122 2.13374C3.41856 3.19617 2.13988 4.70754 1.36093 6.48377C0.581974 8.26 0.336364 10.2244 0.654014 12.1378C0.971664 14.0511 1.83887 15.8308 3.14999 17.26C4.08641 18.275 5.22293 19.0851 6.48793 19.6392C7.75292 20.1933 9.11897 20.4793 10.5 20.4793C11.881 20.4793 13.2471 20.1933 14.512 19.6392C15.777 19.0851 16.9136 18.275 17.85 17.26C19.1611 15.8308 20.0283 14.0511 20.346 12.1378C20.6636 10.2244 20.418 8.26 19.639 6.48377C18.8601 4.70754 17.5814 3.19617 15.9588 2.13374C14.3361 1.07131 12.4395 0.503685 10.5 0.5ZM10.5 18.5C8.42845 18.4969 6.4389 17.6903 4.94999 16.25C5.40203 15.1495 6.17102 14.2083 7.15924 13.5459C8.14746 12.8835 9.3103 12.5298 10.5 12.5298C11.6897 12.5298 12.8525 12.8835 13.8407 13.5459C14.829 14.2083 15.5979 15.1495 16.05 16.25C14.5611 17.6903 12.5715 18.4969 10.5 18.5ZM8.49999 8.5C8.49999 8.10444 8.61729 7.71776 8.83705 7.38886C9.05681 7.05996 9.36917 6.80362 9.73462 6.65224C10.1001 6.50087 10.5022 6.46126 10.8902 6.53843C11.2781 6.6156 11.6345 6.80608 11.9142 7.08579C12.1939 7.36549 12.3844 7.72186 12.4616 8.10982C12.5387 8.49778 12.4991 8.89991 12.3477 9.26537C12.1964 9.63082 11.94 9.94318 11.6111 10.1629C11.2822 10.3827 10.8955 10.5 10.5 10.5C9.96955 10.5 9.46085 10.2893 9.08577 9.91421C8.7107 9.53914 8.49999 9.03043 8.49999 8.5ZM17.41 14.5C16.5165 12.9718 15.1414 11.783 13.5 11.12C14.0092 10.5427 14.3409 9.83066 14.4555 9.06944C14.57 8.30822 14.4625 7.53011 14.1457 6.8285C13.829 6.12688 13.3166 5.53156 12.6699 5.11397C12.0232 4.69637 11.2698 4.47425 10.5 4.47425C9.7302 4.47425 8.97676 4.69637 8.33008 5.11397C7.6834 5.53156 7.17096 6.12688 6.85424 6.8285C6.53752 7.53011 6.42997 8.30822 6.54452 9.06944C6.65906 9.83066 6.99082 10.5427 7.49999 11.12C5.85859 11.783 4.48346 12.9718 3.58999 14.5C2.87793 13.2871 2.50171 11.9065 2.49999 10.5C2.49999 8.37827 3.34284 6.34344 4.84313 4.84315C6.34342 3.34285 8.37826 2.5 10.5 2.5C12.6217 2.5 14.6566 3.34285 16.1568 4.84315C17.6571 6.34344 18.5 8.37827 18.5 10.5C18.4983 11.9065 18.122 13.2871 17.41 14.5Z" fill="#3C79FF"/>
</svg>
