<svg width="18" height="16" viewBox="0 0 18 16" fill="none" xmlns="http://www.w3.org/2000/svg">
<path fill-rule="evenodd" clip-rule="evenodd" d="M8.25 2.66683C5.3505 2.66683 3 4.75617 3 7.3335C3 9.91083 5.3505 12.0002 8.25 12.0002C11.1495 12.0002 13.5 9.91083 13.5 7.3335C13.5 4.75617 11.1495 2.66683 8.25 2.66683ZM1.5 7.3335C1.5 4.01979 4.52208 1.3335 8.25 1.3335C11.9779 1.3335 15 4.01979 15 7.3335C15 10.6472 11.9779 13.3335 8.25 13.3335C4.52208 13.3335 1.5 10.6472 1.5 7.3335Z" fill="#989898"/>
<path fill-rule="evenodd" clip-rule="evenodd" d="M11.9572 10.6284C12.2501 10.368 12.725 10.368 13.0179 10.6284L16.2804 13.5284C16.5733 13.7887 16.5733 14.2108 16.2804 14.4712C15.9875 14.7315 15.5126 14.7315 15.2197 14.4712L11.9572 11.5712C11.6643 11.3108 11.6643 10.8887 11.9572 10.6284Z" fill="#989898"/>
</svg>
