<svg width="1120" height="149" viewBox="0 0 1120 149" fill="none" xmlns="http://www.w3.org/2000/svg">
<g clip-path="url(#clip0_185_153)">
<rect width="1120" height="149" rx="20" fill="white"/>
<path d="M57.0462 95.9491C9.1224 82.2291 -3.74648 31.2119 -3.74648 31.2119L-24.0953 120.774L-1.82664 152.878L242.202 153.431C242.202 153.431 238.689 139.32 234.199 132.763C228.058 123.796 229.672 123.886 210.272 110.767C190.873 97.6477 104.97 109.669 57.0462 95.9491Z" fill="#3C79FF"/>
<path d="M1053 57.5004C1103.2 70.983 1120 130.5 1120 130.5L1125 5.50035L1102.41 -14.0232L802 -4.99963C802 -4.99963 802.958 15.8045 809 25.0003C815.129 34.3279 826 43.0003 838.5 45.5003C851 48.0003 1002.8 44.0177 1053 57.5004Z" fill="#3C79FF"/>
</g>
<defs>
<clipPath id="clip0_185_153">
<rect width="1120" height="149" rx="20" fill="white"/>
</clipPath>
</defs>
</svg>
